<?xml version="1.0" standalone="no"?>
<!DOCTYPE svg PUBLIC "-//W3C//DTD SVG 20010904//EN"
 "http://www.w3.org/TR/2001/REC-SVG-20010904/DTD/svg10.dtd">
<svg version="1.0" xmlns="http://www.w3.org/2000/svg"
 width="2032.000000pt" height="905.000000pt" viewBox="0 0 2032.000000 905.000000"
 preserveAspectRatio="xMidYMid meet">
<metadata>
Created by potrace 1.16, written by Peter Selinger 2001-2019
</metadata>
<g transform="translate(0.000000,905.000000) scale(0.100000,-0.100000)"
fill="#000000" stroke="none">
<path d="M3023 7635 c-187 -51 -334 -201 -378 -387 -77 -327 175 -638 516
-638 68 0 149 14 149 26 0 3 -33 46 -74 97 -119 149 -228 318 -271 420 -12 30
-13 37 -2 37 25 0 136 -111 254 -253 127 -154 211 -247 224 -247 22 0 115 89
154 148 111 168 123 345 33 524 -69 137 -177 227 -327 272 -67 20 -206 20
-278 1z"/>
<path d="M9890 7155 c-147 -41 -227 -165 -250 -387 -26 -259 44 -475 180 -552
52 -29 61 -31 160 -31 118 0 157 14 217 77 55 57 115 223 87 241 -5 3 -39 8
-75 12 l-66 7 -12 -47 c-28 -109 -71 -155 -148 -155 -119 0 -183 150 -170 395
10 173 45 262 120 299 85 41 162 -12 193 -134 11 -41 23 -69 30 -66 6 2 41 7
77 11 66 7 67 8 61 34 -18 83 -48 162 -78 202 -65 88 -203 128 -326 94z"/>
<path d="M6400 7139 c0 -6 56 -132 125 -281 l125 -271 0 -194 0 -193 80 0 80
0 0 194 0 195 130 271 c72 149 130 275 130 280 0 6 -34 10 -78 10 l-77 0 -85
-190 c-46 -104 -85 -190 -86 -190 -1 0 -39 86 -85 190 l-84 190 -87 0 c-56 0
-88 -4 -88 -11z"/>
<path d="M8740 6675 l0 -475 80 0 80 0 0 233 c0 247 7 294 45 333 27 27 80 32
108 12 28 -21 37 -109 37 -349 l0 -229 76 0 75 0 -3 303 c-3 284 -4 304 -24
337 -28 48 -87 80 -149 80 -58 0 -125 -28 -149 -61 -15 -22 -16 -15 -16 134
l0 157 -80 0 -80 0 0 -475z"/>
<path d="M11060 6675 l0 -475 75 0 75 0 0 475 0 475 -75 0 -75 0 0 -475z"/>
<path d="M11370 6675 l0 -475 80 0 80 0 0 475 0 475 -80 0 -80 0 0 -475z"/>
<path d="M13280 7070 l0 -80 80 0 80 0 0 80 0 80 -80 0 -80 0 0 -80z"/>
<path d="M15000 6675 l0 -475 80 0 80 0 0 475 0 475 -80 0 -80 0 0 -475z"/>
<path d="M8433 7093 l-53 -4 0 -95 0 -94 -50 0 -50 0 0 -60 0 -60 44 0 44 0 4
-237 c3 -213 5 -242 23 -277 30 -60 64 -80 145 -84 39 -2 86 -1 105 2 l35 7 0
63 0 63 -48 -5 c-41 -3 -53 0 -78 21 l-29 25 -4 211 -3 211 71 0 71 0 0 60 0
60 -70 0 -70 0 0 100 c0 89 -2 100 -17 98 -10 -1 -42 -3 -70 -5z"/>
<path d="M12973 7093 c-52 -4 -53 -4 -53 -37 0 -18 -3 -61 -6 -95 l-7 -61 -43
0 -44 0 0 -60 0 -60 45 0 45 0 0 -222 c0 -130 5 -240 11 -263 22 -80 78 -115
186 -115 110 0 113 2 113 74 l0 61 -61 0 c-98 0 -99 3 -99 256 l0 209 65 0 65
0 0 60 0 60 -65 0 -65 0 0 100 c0 89 -2 100 -17 98 -10 -1 -42 -3 -70 -5z"/>
<path d="M18303 7093 l-53 -4 0 -72 c0 -109 -4 -117 -56 -117 l-44 0 0 -60 0
-60 44 0 44 0 4 -242 c3 -221 5 -246 23 -277 33 -56 67 -75 145 -79 39 -2 86
-1 105 2 l35 7 0 64 0 65 -30 -6 c-16 -4 -46 -3 -65 0 -58 11 -65 40 -65 271
l0 195 65 0 65 0 0 60 0 60 -65 0 -65 0 0 100 c0 89 -2 100 -17 98 -10 -1 -42
-3 -70 -5z"/>
<path d="M1985 6920 c-77 -6 -160 -43 -319 -142 -596 -372 -1022 -1043 -1121
-1766 -19 -143 -20 -469 -1 -612 39 -290 138 -594 279 -852 l46 -84 158 -76
c453 -218 860 -311 1358 -311 311 0 513 26 826 106 l87 22 -152 0 c-235 1
-424 44 -617 140 -431 217 -738 611 -843 1085 -106 479 -1 856 353 1263 85 99
205 205 332 296 101 72 134 117 171 236 32 102 31 244 -4 342 -61 173 -207
303 -383 341 -75 16 -94 17 -170 12z"/>
<path d="M7197 6906 c-127 -46 -185 -177 -174 -396 8 -158 48 -246 136 -298
41 -24 56 -27 142 -27 89 0 99 2 145 30 96 60 140 185 131 370 -7 140 -27 196
-90 259 -33 33 -67 56 -93 64 -54 16 -149 15 -197 -2z m163 -134 c39 -39 53
-98 53 -222 0 -124 -14 -183 -53 -222 -59 -58 -134 -26 -161 70 -17 58 -17
241 0 301 16 58 60 101 101 101 21 0 41 -9 60 -28z"/>
<path d="M10551 6906 c-56 -19 -114 -75 -141 -138 -49 -113 -48 -324 1 -438
26 -60 91 -122 147 -138 51 -15 144 -15 196 0 55 16 126 89 150 153 24 63 34
266 17 347 -17 80 -66 156 -124 192 -40 25 -60 30 -125 33 -48 2 -93 -3 -121
-11z m158 -131 c45 -38 56 -83 56 -225 0 -180 -31 -250 -111 -250 -77 0 -114
79 -114 245 0 163 39 255 109 255 17 0 42 -11 60 -25z"/>
<path d="M11824 6896 c-113 -52 -168 -170 -168 -356 0 -178 46 -278 153 -332
93 -48 222 -36 297 25 33 28 94 133 94 164 0 7 -21 15 -47 18 -95 13 -93 13
-108 -30 -19 -55 -56 -85 -104 -85 -72 0 -117 57 -128 160 l-6 60 200 0 199 0
-4 68 c-12 222 -102 332 -271 332 -38 0 -73 -8 -107 -24z m180 -123 c21 -20
46 -94 46 -133 0 -6 -50 -10 -119 -10 l-118 0 8 47 c13 66 39 106 78 119 44
14 75 7 105 -23z"/>
<path d="M12453 6903 c-57 -20 -124 -95 -147 -165 -24 -72 -32 -218 -17 -303
17 -94 46 -158 91 -199 45 -40 93 -56 170 -56 30 0 72 5 93 11 78 21 144 110
162 217 l7 42 -39 0 c-21 0 -55 3 -75 6 -29 5 -38 3 -38 -7 0 -8 -5 -31 -11
-53 -32 -116 -150 -114 -191 2 -17 49 -17 244 1 304 22 77 75 109 137 83 27
-11 35 -23 48 -66 9 -29 16 -58 16 -65 0 -12 30 -11 118 2 37 6 38 8 15 88
-21 75 -87 148 -148 165 -55 15 -141 12 -192 -6z"/>
<path d="M14257 6906 c-85 -31 -140 -98 -172 -210 -13 -46 -16 -87 -13 -181 4
-113 6 -127 36 -187 50 -102 122 -147 237 -148 83 0 130 15 177 58 40 36 88
120 88 154 0 12 -12 18 -42 23 -24 3 -55 8 -69 11 -23 4 -27 0 -37 -35 -26
-85 -118 -118 -181 -65 -31 26 -44 59 -56 147 l-6 47 200 0 201 0 0 33 c-1 64
-21 170 -41 218 -26 59 -93 124 -145 138 -52 15 -131 13 -177 -3z m154 -121
c18 -12 49 -87 49 -122 l0 -33 -115 0 c-128 0 -125 -2 -105 72 13 47 54 96 83
100 23 4 68 -5 88 -17z"/>
<path d="M15553 6899 c-23 -11 -51 -35 -62 -52 l-21 -32 0 43 0 42 -70 0 -70
0 0 -350 0 -350 74 0 74 0 4 248 c4 263 12 307 56 331 34 18 87 13 108 -10 18
-19 19 -42 22 -295 l3 -274 73 0 74 0 4 243 c5 304 18 346 110 347 30 0 41 -6
55 -27 16 -24 18 -59 21 -295 l3 -268 75 0 74 0 0 293 c0 284 -1 294 -22 337
-32 64 -91 93 -175 88 -70 -4 -103 -23 -140 -78 l-23 -32 -9 23 c-10 26 -44
60 -78 78 -35 18 -114 13 -160 -10z"/>
<path d="M16595 6913 c-47 -10 -78 -28 -105 -62 l-30 -36 0 43 0 42 -70 0 -70
0 0 -470 0 -470 75 0 75 0 0 146 0 146 30 -26 c46 -38 104 -51 169 -38 99 21
154 88 187 229 22 94 14 256 -16 337 -31 82 -91 140 -159 155 -29 6 -55 10
-59 10 -4 -1 -16 -3 -27 -6z m55 -141 c48 -48 70 -179 51 -302 -15 -92 -35
-137 -73 -156 -66 -34 -131 15 -149 112 -15 81 -6 251 16 298 37 78 104 98
155 48z"/>
<path d="M17147 6906 c-83 -30 -143 -91 -153 -158 l-6 -35 47 -6 c90 -13 101
-10 111 24 5 18 21 41 35 51 31 23 92 26 116 7 23 -19 43 -72 43 -112 l0 -33
-101 -11 c-134 -15 -201 -47 -244 -117 -27 -44 -30 -58 -30 -131 0 -73 3 -86
28 -124 69 -103 252 -109 329 -11 l26 33 7 -42 7 -41 75 0 c67 0 74 2 68 17
-3 10 -8 128 -11 263 -3 135 -7 264 -10 288 -7 57 -58 115 -121 136 -56 19
-164 20 -216 2z m191 -431 c-10 -113 -76 -192 -150 -178 -57 11 -84 86 -55
155 24 56 79 85 171 87 l39 1 -5 -65z"/>
<path d="M17791 6907 c-53 -21 -112 -76 -137 -131 -74 -162 -48 -432 50 -530
48 -49 98 -66 188 -66 120 0 204 65 235 182 21 82 19 88 -24 88 -21 0 -54 3
-74 6 l-36 6 -7 -46 c-10 -65 -47 -106 -95 -106 -89 0 -136 132 -112 317 13
101 32 140 76 159 66 27 116 -13 131 -105 l7 -41 41 6 c117 15 109 11 102 57
-11 74 -56 148 -109 181 -40 25 -60 30 -125 33 -46 1 -91 -2 -111 -10z"/>
<path d="M7702 6603 c3 -274 5 -301 23 -337 27 -53 63 -78 124 -84 75 -7 118
5 162 45 l39 35 0 -31 0 -31 75 0 75 0 0 350 0 350 -80 0 -80 0 0 -225 c0
-123 -5 -246 -11 -273 -13 -61 -44 -94 -93 -95 -76 -2 -84 34 -85 371 l-1 222
-76 0 -76 0 4 -297z"/>
<path d="M13280 6550 l0 -350 75 0 75 0 0 350 0 350 -75 0 -75 0 0 -350z"/>
<path d="M13503 6888 c2 -7 39 -134 81 -283 42 -148 86 -301 97 -338 l20 -68
71 3 70 3 92 325 c51 179 96 335 100 348 7 21 5 22 -62 22 -64 0 -70 -2 -76
-22 -3 -13 -29 -113 -57 -223 -28 -110 -54 -203 -58 -208 -4 -4 -34 96 -67
223 l-59 230 -79 0 c-58 0 -77 -3 -73 -12z"/>
<path d="M7624 5352 c-103 -36 -190 -119 -242 -229 -24 -51 -27 -70 -27 -158
0 -92 3 -106 32 -167 40 -86 106 -156 186 -199 58 -31 70 -34 172 -37 94 -3
118 -1 168 18 81 31 176 121 219 208 31 63 33 73 33 177 0 100 -2 115 -28 167
-42 85 -116 161 -195 200 -60 30 -76 33 -167 36 -76 2 -112 -2 -151 -16z m220
-154 c55 -16 138 -99 154 -154 49 -167 -64 -326 -232 -327 -265 -1 -351 349
-114 467 58 29 124 34 192 14z"/>
<path d="M8448 5278 l-248 -91 0 -72 0 -71 111 -39 111 -39 -39 -17 c-22 -9
-72 -27 -112 -40 l-72 -23 3 -75 3 -74 235 -85 c129 -46 244 -85 254 -86 15
-1 25 14 44 67 15 39 21 71 16 76 -5 4 -63 27 -129 50 -66 24 -123 46 -127 50
-4 3 42 24 102 45 l110 38 0 72 0 71 -115 40 -115 40 140 50 c77 28 140 55
140 61 0 20 -47 138 -56 140 -5 1 -120 -39 -256 -88z"/>
<path d="M12010 5361 c-101 -33 -212 -127 -256 -217 -77 -157 -44 -345 83
-472 29 -29 78 -65 110 -80 53 -25 68 -27 178 -27 112 0 124 2 179 29 259 127
310 467 100 666 -83 79 -148 104 -269 107 -55 1 -111 -1 -125 -6z m215 -170
c87 -39 144 -126 145 -220 0 -73 -17 -124 -57 -170 -47 -55 -113 -85 -188 -84
-146 0 -245 101 -245 249 0 107 52 186 152 229 47 20 144 18 193 -4z"/>
<path d="M12664 5351 c-94 -43 -132 -157 -81 -243 73 -125 250 -114 309 20 29
65 18 121 -34 178 -59 64 -121 78 -194 45z"/>
<path d="M14208 5277 l-248 -90 0 -71 0 -72 104 -37 c57 -20 110 -37 118 -38
16 0 -191 -79 -210 -79 -10 0 -12 -19 -10 -76 l3 -77 249 -89 c137 -49 253
-85 256 -81 4 4 19 38 32 75 l26 66 -107 38 c-58 21 -122 44 -141 52 l-35 14
113 40 112 40 0 72 0 71 -115 40 -115 39 133 48 c72 27 137 50 144 53 12 4
-38 148 -54 151 -4 1 -119 -39 -255 -89z"/>
<path d="M15477 5346 c-99 -41 -184 -124 -229 -222 -19 -41 -22 -67 -23 -159
0 -105 2 -114 33 -177 43 -87 138 -177 219 -208 50 -19 74 -21 168 -18 102 3
114 6 172 37 80 43 146 113 186 199 29 61 32 75 32 167 0 92 -3 105 -32 168
-40 83 -118 163 -200 203 -51 25 -71 29 -163 32 -93 2 -112 0 -163 -22z m264
-164 c68 -35 114 -95 129 -166 51 -248 -246 -403 -424 -220 -59 61 -78 146
-54 242 14 56 94 142 148 159 67 21 143 16 201 -15z"/>
<path d="M16329 5347 c-228 -96 -327 -344 -224 -562 35 -73 117 -154 191 -191
55 -27 67 -29 179 -29 110 0 125 2 178 27 32 15 81 51 110 80 202 202 148 529
-108 661 -54 28 -71 31 -165 34 -92 3 -112 1 -161 -20z m277 -172 c33 -21 60
-49 82 -85 32 -52 33 -59 30 -136 -3 -68 -7 -87 -31 -122 -108 -163 -343 -154
-429 17 -66 129 -13 282 117 343 63 29 168 22 231 -17z"/>
<path d="M17163 5278 l-253 -92 0 -71 0 -70 115 -40 115 -41 -112 -40 -113
-41 -3 -70 c-2 -60 0 -72 15 -78 45 -18 487 -175 492 -175 3 0 17 30 31 67 14
37 26 71 28 74 1 3 -57 28 -130 54 -128 46 -168 65 -138 65 7 0 58 16 112 36
l98 36 0 72 0 71 -114 40 -114 39 131 48 c72 26 138 48 145 48 16 0 15 2 -20
98 -13 34 -25 62 -28 61 -3 0 -119 -41 -257 -91z"/>
<path d="M6785 4978 c-76 -211 -140 -389 -143 -395 -3 -10 17 -13 81 -13 l85
0 14 38 c8 20 50 135 93 254 l79 216 91 -251 91 -252 88 -3 c49 -2 86 1 84 6
-1 5 -66 183 -143 395 l-140 387 -70 0 -71 0 -139 -382z"/>
<path d="M8780 5312 c0 -120 117 -246 264 -283 l46 -11 0 -54 0 -53 -42 -12
c-153 -41 -268 -162 -268 -281 l0 -48 80 0 80 0 0 34 c0 23 9 45 26 66 25 29
91 70 114 70 6 0 10 -33 10 -85 l0 -85 80 0 80 0 0 85 c0 52 4 85 10 85 23 0
89 -41 114 -70 17 -21 26 -43 26 -66 l0 -34 80 0 80 0 0 48 c-1 119 -116 241
-268 281 l-42 12 0 53 0 54 46 11 c147 37 264 163 264 283 l0 48 -80 0 -80 0
0 -35 c0 -43 -55 -106 -112 -130 l-38 -15 0 90 0 90 -80 0 -80 0 0 -90 0 -90
-37 15 c-58 24 -113 87 -113 130 l0 35 -80 0 -80 0 0 -48z"/>
<path d="M10330 4965 l0 -395 320 0 320 0 0 80 0 80 -240 0 -240 0 0 235 0
235 240 0 240 0 0 80 0 80 -320 0 -320 0 0 -395z"/>
<path d="M11000 5356 c0 -3 57 -91 126 -196 69 -106 123 -197 121 -203 -2 -7
-58 -93 -123 -192 -66 -99 -120 -183 -122 -187 -2 -5 39 -8 91 -8 l94 0 83
124 82 125 82 -124 81 -125 93 0 c50 0 92 2 92 5 0 3 -56 91 -125 196 -69 105
-125 192 -125 195 0 2 54 86 121 185 66 99 123 187 126 195 4 12 -45 14 -346
14 -193 0 -351 -2 -351 -4z"/>
<path d="M13350 4965 l0 -395 80 0 80 0 0 395 0 395 -80 0 -80 0 0 -395z"/>
<path d="M14790 5205 l0 -154 -122 -3 -123 -3 -3 -237 -2 -238 85 0 85 0 0
155 0 155 160 0 160 0 0 -155 0 -155 80 0 80 0 0 240 0 240 -120 0 -120 0 0
155 0 155 -80 0 -80 0 0 -155z"/>
<path d="M17510 4965 l0 -395 320 0 320 0 0 80 0 80 -240 0 -240 0 0 235 0
235 240 0 240 0 0 80 0 80 -320 0 -320 0 0 -395z"/>
<path d="M18230 4965 l0 -395 75 0 75 0 0 395 0 395 -75 0 -75 0 0 -395z"/>
<path d="M6415 4895 c-71 -33 -105 -87 -105 -165 0 -69 31 -119 93 -149 71
-34 135 -25 190 27 41 39 57 74 57 127 0 123 -128 210 -235 160z"/>
<path d="M10076 4900 c-34 -11 -82 -54 -102 -92 -8 -15 -14 -48 -14 -73 0 -95
79 -175 173 -175 47 1 111 33 137 70 98 138 -31 318 -194 270z"/>
<path d="M12682 4902 c-36 -11 -93 -62 -108 -98 -62 -149 93 -297 236 -224 91
46 123 164 68 248 -42 63 -124 94 -196 74z"/>
<path d="M17289 4265 c-92 -68 -125 -153 -74 -193 l25 -20 -35 -21 c-34 -20
-61 -63 -44 -69 5 -2 68 13 141 34 134 37 168 56 168 94 0 16 -7 18 -57 13
-52 -4 -63 -2 -108 27 -46 30 -48 33 -30 46 25 19 65 18 94 -2 20 -14 25 -15
37 -2 21 21 29 84 14 103 -20 25 -91 19 -131 -10z"/>
<path d="M17807 4119 c-58 -68 -65 -103 -39 -212 26 -105 42 -233 42 -328 0
-61 -16 -174 -27 -192 -3 -5 -25 22 -49 59 -67 103 -182 239 -286 340 -107
105 -166 147 -200 142 -32 -4 -90 -119 -95 -190 -4 -47 -1 -58 27 -95 33 -44
138 -129 180 -145 21 -8 28 -5 46 16 12 13 24 31 27 38 6 15 171 -148 236
-234 l43 -57 -22 -31 c-12 -17 -53 -57 -91 -90 -60 -52 -75 -60 -109 -60 l-40
0 0 -115 0 -115 125 0 c158 0 217 12 264 55 35 33 36 35 40 120 2 71 -1 100
-23 170 -24 77 -25 88 -12 112 7 16 24 60 36 98 19 59 23 103 29 286 7 214 7
217 34 258 15 22 27 43 27 46 0 3 -21 32 -47 63 -27 32 -55 68 -64 81 l-15 24
-37 -44z"/>
<path d="M14421 4098 c-18 -24 -37 -60 -43 -80 -12 -40 -7 -62 57 -277 29 -96
31 -140 10 -181 -15 -29 -33 -37 -125 -55 -61 -13 -109 -43 -129 -83 -15 -31
-41 -124 -41 -150 0 -4 60 -8 133 -8 72 -1 146 -6 162 -11 l30 -10 -55 -31
c-87 -51 -149 -65 -290 -66 -170 -1 -189 9 -289 144 -83 113 -102 130 -146
130 -45 0 -70 -22 -129 -113 -62 -97 -111 -143 -163 -154 -54 -11 -147 -8
-182 7 -50 20 -61 50 -77 198 -39 375 -55 520 -61 547 l-6 30 -44 -50 c-25
-27 -49 -60 -54 -73 -13 -34 -11 -111 5 -189 8 -37 26 -174 40 -304 29 -263
43 -323 83 -361 49 -46 147 -60 254 -37 43 9 62 21 101 61 l49 50 80 -77 c45
-42 101 -86 126 -97 79 -35 149 -7 174 69 10 32 12 33 29 18 9 -8 42 -21 73
-27 72 -15 237 3 309 34 28 12 110 68 182 125 171 134 197 144 390 152 l149 6
23 85 c13 47 24 86 24 86 0 1 -46 5 -102 9 -125 8 -236 28 -344 61 -45 13 -89
24 -97 24 -14 0 -14 4 0 38 20 46 21 146 3 264 -13 87 -13 87 14 141 l28 54
-51 64 c-28 35 -51 67 -51 71 0 19 -21 5 -49 -34z m-690 -822 c10 -24 22 -71
25 -105 6 -51 4 -62 -10 -67 -17 -7 -39 6 -100 58 l-39 34 23 44 c46 93 72
102 101 36z"/>
<path d="M10363 4087 c-77 -84 -78 -117 -13 -502 50 -297 56 -347 40 -384 -18
-44 -89 -66 -177 -55 -99 12 -132 64 -153 234 -15 132 -40 504 -40 613 0 62
-4 97 -11 97 -14 0 -59 -53 -86 -102 -28 -50 -29 -98 -7 -393 27 -376 -1 -449
-171 -449 -38 0 -87 4 -108 8 -47 9 -102 57 -117 101 -12 37 -50 51 -50 19 0
-32 -40 -83 -75 -94 -52 -17 -92 7 -106 65 -14 54 -34 64 -53 27 -34 -64 -100
-105 -199 -122 -82 -15 -113 -2 -142 55 -11 22 -21 42 -22 44 -2 2 -25 -16
-51 -41 -27 -25 -62 -48 -78 -51 -80 -15 -129 -17 -178 -7 -61 12 -91 39 -111
97 -7 21 -17 38 -23 38 -5 0 -25 -20 -44 -45 -60 -79 -154 -112 -254 -90 -53
12 -81 32 -95 68 -5 13 -23 155 -39 315 -38 371 -41 397 -51 397 -16 0 -99
-117 -105 -150 -4 -20 0 -72 10 -124 9 -49 28 -188 42 -310 37 -337 48 -376
116 -413 50 -27 199 -25 253 4 41 21 84 63 102 97 9 16 13 13 36 -27 44 -74
78 -92 172 -92 102 1 146 17 189 66 l34 40 20 -35 c39 -66 135 -91 234 -62 42
12 65 27 99 63 30 32 44 42 47 32 3 -8 20 -29 38 -46 27 -28 39 -33 78 -33 37
0 52 6 82 32 21 18 47 54 59 79 l21 47 18 -49 c22 -63 74 -115 128 -130 50
-13 164 -5 211 15 46 19 85 65 111 130 22 53 36 63 36 26 0 -9 14 -44 30 -77
43 -85 71 -98 216 -97 143 0 192 21 241 103 61 102 65 201 18 516 -37 255 -39
277 -20 320 8 22 27 54 40 71 l25 33 -49 65 c-27 36 -52 74 -56 85 -9 30 -17
27 -62 -22z"/>
<path d="M16779 3930 c-23 -39 -40 -72 -38 -74 2 -1 33 -24 68 -51 61 -46 64
-48 78 -29 18 24 63 111 63 121 0 7 -87 79 -117 96 -8 5 -27 -18 -54 -63z"/>
<path d="M15269 3875 c-81 -101 -81 -104 -24 -440 30 -174 55 -381 55 -452 0
-18 6 -23 25 -23 20 0 27 8 41 53 31 96 29 269 -5 578 -17 152 -31 290 -31
308 0 17 -4 31 -9 31 -4 0 -28 -25 -52 -55z"/>
<path d="M18233 3888 c-87 -95 -90 -134 -38 -433 19 -110 41 -267 47 -348 l12
-148 26 3 c21 3 27 12 44 68 34 115 25 288 -42 844 l-7 59 -42 -45z"/>
<path d="M9116 3835 c-21 -36 -36 -69 -34 -74 3 -10 118 -101 128 -101 7 0 83
140 79 145 -16 15 -124 95 -129 95 -3 0 -23 -29 -44 -65z"/>
<path d="M16936 3758 c-14 -24 -30 -49 -35 -57 -7 -11 -19 -6 -62 28 -29 23
-57 40 -63 38 -11 -4 -89 -127 -84 -132 18 -17 130 -95 137 -95 6 0 22 22 37
50 15 28 32 47 38 43 6 -3 32 -21 57 -40 26 -18 49 -33 52 -33 11 0 88 131 82
140 -7 11 -121 100 -128 100 -3 0 -17 -19 -31 -42z"/>
<path d="M9267 3650 c-15 -27 -31 -51 -35 -54 -5 -3 -34 15 -65 40 l-56 45
-27 -43 c-14 -24 -32 -53 -40 -65 -8 -12 -14 -26 -14 -31 0 -10 124 -102 137
-102 6 0 15 12 22 28 7 15 19 37 27 50 l15 23 47 -33 c26 -19 52 -37 58 -41
12 -7 98 118 92 133 -4 11 -115 100 -125 100 -4 0 -21 -22 -36 -50z"/>
<path d="M12414 3681 c-80 -36 -200 -182 -236 -286 -30 -86 -25 -119 27 -174
l46 -49 -35 -12 c-19 -6 -95 -15 -168 -20 -180 -12 -228 -28 -288 -97 -53 -60
-83 -137 -84 -214 -1 -105 33 -131 199 -150 53 -5 106 -14 118 -19 20 -8 19
-9 -15 -24 -119 -51 -443 -61 -562 -18 -72 26 -118 61 -154 115 -37 56 -36
151 2 256 28 73 26 101 -7 88 -16 -6 -79 -167 -97 -247 -17 -78 -9 -225 15
-274 40 -83 129 -143 245 -167 71 -15 276 -6 355 15 73 20 188 74 251 116 61
43 84 82 84 147 0 87 -46 125 -225 183 -38 12 -74 25 -79 28 -25 14 45 26 193
33 131 6 184 13 251 33 81 23 480 192 527 222 12 8 27 33 33 55 15 56 31 152
25 157 -2 2 -41 -12 -87 -31 -188 -80 -258 -85 -350 -23 -68 44 -93 78 -79
105 27 50 225 93 333 71 33 -6 63 -9 66 -5 9 9 -27 71 -70 120 -70 79 -153
103 -234 66z"/>
<path d="M7556 3560 c-20 -56 -36 -112 -36 -126 0 -15 15 -38 40 -61 22 -21
40 -46 40 -55 0 -98 -580 -212 -860 -168 -36 6 -94 25 -130 43 -110 54 -134
120 -85 226 20 42 23 56 13 63 -20 12 -21 11 -60 -40 -59 -79 -81 -131 -86
-204 -6 -87 2 -126 39 -181 80 -122 285 -179 557 -157 268 22 508 92 600 174
32 30 45 53 68 124 25 75 29 102 29 203 0 113 -1 118 -35 184 -19 38 -40 70
-46 72 -7 2 -27 -40 -48 -97z"/>
<path d="M16882 3443 c-64 -138 -64 -148 0 -222 26 -29 28 -35 15 -48 -19 -19
-148 -36 -215 -28 -57 7 -102 37 -128 86 -8 16 -19 29 -24 29 -12 0 -120 -160
-120 -178 0 -23 42 -96 92 -160 l49 -63 -48 -62 c-99 -130 -224 -231 -317
-257 -28 -8 -75 -11 -121 -8 -61 4 -75 2 -80 -11 -8 -19 18 -39 114 -88 67
-34 81 -38 155 -38 64 0 90 5 121 22 108 57 199 220 235 420 l13 70 88 6 c219
16 294 100 294 327 0 62 -6 122 -14 145 -33 97 -53 145 -60 145 -5 0 -26 -39
-49 -87z"/>
<path d="M14601 2935 c-23 -35 -41 -68 -40 -72 0 -9 102 -91 121 -98 12 -4 88
110 88 132 0 8 -113 103 -123 103 -3 0 -24 -29 -46 -65z"/>
<path d="M8333 2783 c-21 -38 -38 -71 -38 -74 0 -8 122 -99 133 -99 5 0 63 94
80 132 3 5 -91 82 -125 101 -7 5 -26 -18 -50 -60z"/>
<path d="M7056 2778 c-42 -68 -66 -108 -66 -111 0 -4 107 -89 126 -100 14 -8
101 132 87 142 -5 3 -34 25 -64 49 -31 23 -59 42 -62 42 -4 0 -13 -10 -21 -22z"/>
<path d="M11609 2325 c-18 -25 -34 -45 -36 -45 -3 0 -24 14 -48 30 -24 17 -48
30 -53 30 -9 0 -72 -90 -72 -103 0 -7 107 -77 118 -77 4 0 18 17 31 39 l24 39
49 -29 c27 -16 53 -29 58 -29 10 0 80 88 80 101 0 5 -27 26 -59 49 l-60 40
-32 -45z"/>
</g>
</svg>
